<svg width="680" height="420" viewBox="0 0 680 420" xmlns="http://www.w3.org/2000/svg">
  <style>
    @import url('https://fonts.googleapis.com/css2?family=Rajdhani:wght@700&display=swap');
  </style>

  <rect width="680" height="420" fill="#060f1c"/>

  <polygon points="340,62 446,123 446,245 340,306 234,245 234,123"
    fill="#0a1628" opacity="0.6" transform="translate(4,6)" />
  <polygon points="340,62 446,123 446,245 340,306 234,245 234,123"
    fill="#0d1f35" stroke="#22d3ee" stroke-width="2" />
  <polygon points="340,82 426,133 426,235 340,286 254,235 254,133"
    fill="none" stroke="#22d3ee" stroke-width="0.6" opacity="0.25" />
  <polygon points="340,102 406,141 406,225 340,264 274,225 274,141"
    fill="none" stroke="#22d3ee" stroke-width="0.4" opacity="0.12" />

  <circle cx="340" cy="62" r="3" fill="#22d3ee" opacity="0.7" />
  <circle cx="446" cy="123" r="3" fill="#22d3ee" opacity="0.7" />
  <circle cx="446" cy="245" r="3" fill="#22d3ee" opacity="0.7" />
  <circle cx="340" cy="306" r="3" fill="#22d3ee" opacity="0.7" />
  <circle cx="234" cy="245" r="3" fill="#22d3ee" opacity="0.7" />
  <circle cx="234" cy="123" r="3" fill="#22d3ee" opacity="0.7" />

  <rect x="326" y="56" width="28" height="3.5" rx="1.5" fill="#22d3ee" opacity="0.9" />

  <text x="340" y="210"
    text-anchor="middle"
    font-family="Rajdhani, monospace"
    font-weight="700"
    font-size="78"
    fill="#22d3ee"
    letter-spacing="4">MFS</text>

  <line x1="234" y1="330" x2="446" y2="330" stroke="#22d3ee" stroke-width="0.5" opacity="0.2" />
  <text x="340" y="352" text-anchor="middle"
    font-family="monospace" font-size="11" font-weight="500"
    fill="#22d3ee" letter-spacing="7" opacity="0.65">M. FATIH SYAM</text>
  <text x="340" y="370" text-anchor="middle"
    font-family="monospace" font-size="9"
    fill="#22d3ee" letter-spacing="4" opacity="0.35">FULLSTACK  ·  DESIGNER</text>

  <line x1="160" y1="184" x2="224" y2="184" stroke="#22d3ee" stroke-width="0.7" opacity="0.3" />
  <line x1="456" y1="184" x2="520" y2="184" stroke="#22d3ee" stroke-width="0.7" opacity="0.3" />
  <circle cx="157" cy="184" r="3" fill="none" stroke="#22d3ee" stroke-width="1" opacity="0.3" />
  <circle cx="523" cy="184" r="3" fill="none" stroke="#22d3ee" stroke-width="1" opacity="0.3" />
  <line x1="160" y1="194" x2="210" y2="194" stroke="#22d3ee" stroke-width="0.4" opacity="0.15" />
  <line x1="470" y1="194" x2="520" y2="194" stroke="#22d3ee" stroke-width="0.4" opacity="0.15" />
</svg>
